<svg viewBox="0 0 480 480.23757" xmlns="http://www.w3.org/2000/svg"><path d="m392.117188 240c0 83.949219-68.050782 152-152 152-83.945313 0-152-68.050781-152-152s68.054687-152 152-152c83.949218 0 152 68.050781 152 152zm0 0" fill="#f9a419"/><path d="m424.117188 305.679688v-257.679688c0-22.089844-17.90625-40-40-40-22.089844 0-40 17.910156-40 40v257.679688c-36.230469 18.488281-55.070313 59.402343-45.5625 98.953124 9.511718 39.550782 44.886718 67.429688 85.5625 67.429688 40.679687 0 76.054687-27.878906 85.5625-67.429688 9.507812-39.550781-9.328126-80.464843-45.5625-98.953124zm-40 118.320312c-22.089844 0-40-17.910156-40-40s17.910156-40 40-40c22.09375 0 40 17.910156 40 40s-17.90625 40-40 40zm0 0" fill="#f4d9a3"/><path d="m424.117188 384c0 22.089844-17.90625 40-40 40-22.089844 0-40-17.910156-40-40s17.910156-40 40-40c22.09375 0 40 17.910156 40 40zm0 0" fill="#db4b40"/><path d="m432.117188 300.9375v-252.9375c0-26.507812-21.488282-48-48-48-26.507813 0-48 21.492188-48 48v64.199219c-60.546876-45.863281-144.984376-42.882813-202.148438 7.136719-57.167969 50.019531-71.328125 133.3125-33.90625 199.414062 37.417969 66.101562 116.128906 96.820312 188.433594 73.546875.191406 2.304687.4375 4.605469.796875 6.917969 7.828125 49.539062 52.464843 84.707031 102.457031 80.71875 49.992188-3.984375 88.492188-45.78125 88.367188-95.933594.0625-34.292969-18.257813-65.992188-48-83.0625zm-336-60.9375c-.09375-56.832031 33.300781-108.386719 85.207031-131.535156 51.902343-23.152344 112.570312-13.554688 154.792969 24.488281v168c-26.964844 15.625-44.679688 43.359375-47.511719 74.398437-44.066407 16.039063-93.195313 9.523438-131.558594-17.453124-38.363281-26.976563-61.113281-71-60.929687-117.898438zm341.320312 203.648438c-17.019531 15.324218-39.828125 22.554687-62.566406 19.832031-35.042969-4.03125-63.304688-30.550781-69.546875-65.269531-6.246094-34.714844 11-69.421876 42.441406-85.410157 2.671875-1.367187 4.351563-4.113281 4.351563-7.113281v-9.6875h16v-16h-16v-16h16v-16h-16v-16h16v-16h-16v-16h16v-16h-16v-16h16v-16h-16v-16h16v-16h-16v-16h16v-16h-16v-16h16v-16h-16v-8c0-17.671875 14.328124-32 32-32 17.675781 0 32 14.328125 32 32v8h-16v16h16v16h-16v16h16v16h-16v16h16v16h-16v16h16v16h-16v16h16v16h-16v16h16v16h-16v16h16v16h-16v16h16v9.6875c0 3.003906 1.679687 5.757812 4.355468 7.128906 23.507813 11.972656 39.59375 34.777344 42.984375 60.941406 3.394531 26.164063-6.34375 52.316407-26.019531 69.890626zm0 0"/><path d="m232.117188 0h16v64h-16zm0 0"/><path d="m232.117188 416h16v64h-16zm0 0"/><path d="m.117188 232h64v16h-64zm0 0"/><path d="m53.214844 415.601562 45.253906-45.257812 11.316406 11.316406-45.257812 45.253906zm0 0"/><path d="m50.460938 61.664062 11.3125-11.316406 45.253906 45.257813-11.316406 11.3125zm0 0"/><path d="m392.117188 336.71875v-176.71875h-16v176.71875c-24.601563 4.160156-41.917969 26.476562-39.832032 51.34375 2.089844 24.867188 22.878906 43.984375 47.832032 43.984375 24.957031 0 45.746093-19.117187 47.832031-43.984375 2.089843-24.867188-15.226563-47.183594-39.832031-51.34375zm-8 79.28125c-17.671876 0-32-14.328125-32-32s14.328124-32 32-32c17.675781 0 32 14.328125 32 32s-14.324219 32-32 32zm0 0"/><path d="m320.117188 232h-16c0 35.347656-28.652344 64-64 64-35.34375 0-64-28.652344-64-64h-16c0 44.183594 35.820312 80 80 80 44.183593 0 80-35.816406 80-80zm0 0"/><path d="m184.117188 200h16v16h-16zm0 0"/><path d="m288.117188 200h16v16h-16zm0 0"/></svg>